<svg width="65" height="65" viewBox="0 0 65 65" fill="none" xmlns="http://www.w3.org/2000/svg">
<path d="M62.6844 23.1086L59.6383 22.2481C59.5505 22.0021 59.4555 21.7589 59.3533 21.5186L60.9806 18.8123C61.0596 18.6762 61.1031 18.5225 61.1071 18.3652C61.1111 18.2079 61.0754 18.0521 61.0034 17.9122C60.9314 17.7723 60.8254 17.6528 60.695 17.5646C60.5647 17.4765 60.4143 17.4225 60.2577 17.4078L57.1149 17.1649C56.976 16.9361 56.8319 16.7104 56.6828 16.4881L57.7409 13.53C57.7964 13.3816 57.8127 13.2214 57.7881 13.0649C57.7635 12.9084 57.6989 12.7609 57.6006 12.6367C57.5022 12.5125 57.3735 12.4158 57.2268 12.356C57.0801 12.2962 56.9205 12.2753 56.7634 12.2954L53.6317 12.6645C53.4566 12.4724 53.2703 12.2857 53.0874 12.0958L53.5523 8.97907C53.5768 8.8232 53.5605 8.66363 53.5048 8.51597C53.4492 8.36831 53.3562 8.23762 53.2349 8.13669C53.114 8.03589 52.9696 7.96711 52.8151 7.93667C52.6606 7.90623 52.501 7.91511 52.3509 7.96249L49.3406 8.94577C49.1297 8.7884 48.9143 8.63728 48.6946 8.4926L48.5489 5.34023C48.5408 5.18227 48.4926 5.02898 48.4088 4.8948C48.3251 4.76062 48.2086 4.64998 48.0703 4.57328C47.9319 4.49659 47.7764 4.45638 47.6183 4.45644C47.4601 4.4565 47.3046 4.49683 47.1664 4.57363L44.4167 6.12058C44.1782 6.00953 43.9359 5.90684 43.6902 5.8127L42.9286 2.73793C42.8914 2.58457 42.8154 2.44334 42.708 2.32776C42.6006 2.21218 42.4653 2.12613 42.3151 2.07784C42.1649 2.02956 42.0048 2.02066 41.8502 2.05201C41.6956 2.08335 41.5516 2.15389 41.4321 2.25686L39.0362 4.30286C38.7783 4.24828 38.5212 4.18925 38.2558 4.14525L36.9093 1.29299C36.8413 1.15081 36.7383 1.02827 36.6099 0.936933C36.4816 0.845599 36.332 0.788483 36.1755 0.770971C36.0189 0.753461 35.8605 0.776133 35.7151 0.836848C35.5697 0.897563 35.4422 0.99432 35.3446 1.11799L33.3975 3.58312C33.1313 3.57306 32.866 3.57329 32.6045 3.57241L30.7268 1.04944C30.6335 0.923023 30.5097 0.822359 30.3669 0.756889C30.2242 0.691417 30.0671 0.663285 29.9105 0.675128C29.7539 0.686971 29.6029 0.738403 29.4716 0.824601C29.3403 0.910798 29.2331 1.02894 29.1599 1.16794L27.7313 3.99426C27.4688 4.03323 27.2074 4.07938 26.9474 4.13266L24.6181 2.01097C24.5021 1.90383 24.3605 1.82837 24.2069 1.79188C24.0533 1.75538 23.8929 1.75906 23.7411 1.80258C23.5893 1.84609 23.4513 1.92797 23.3404 2.04033C23.2295 2.15268 23.1494 2.29172 23.1078 2.44405L22.2451 5.48103C21.9951 5.57166 21.753 5.6748 21.5186 5.77572L18.8094 4.13591C18.673 4.0556 18.5185 4.01136 18.3603 4.00735C18.2021 4.00335 18.0455 4.03972 17.9053 4.11302C17.7651 4.18633 17.6459 4.29416 17.5589 4.42634C17.4719 4.55853 17.42 4.7107 17.4081 4.86852L17.1624 8.00037C16.9314 8.14245 16.7207 8.28925 16.4858 8.43245L13.5283 7.37373C13.3799 7.32058 13.2205 7.30609 13.0651 7.33163C12.9096 7.35717 12.7633 7.4219 12.6398 7.51972C12.5163 7.61754 12.4197 7.74521 12.3593 7.89071C12.2988 8.0362 12.2763 8.19471 12.2941 8.35128L12.6636 11.4837C12.4716 11.6589 12.2868 11.8446 12.0971 12.0275L8.97903 11.5626C8.8231 11.5386 8.66363 11.5551 8.51589 11.6105C8.36816 11.6658 8.23712 11.7582 8.13533 11.8787C8.03354 11.9993 7.9644 12.144 7.93454 12.2989C7.90469 12.4538 7.91511 12.6139 7.96482 12.7636L8.93859 15.7776C8.79 15.9866 8.64115 16.2021 8.4973 16.4203L5.33791 16.5678C5.18051 16.5762 5.02788 16.6247 4.89443 16.7086C4.76098 16.7925 4.65111 16.909 4.5752 17.0472C4.49929 17.1854 4.45985 17.3406 4.4606 17.4983C4.46135 17.6559 4.50227 17.8108 4.57948 17.9483L6.11675 20.7016C6.00852 20.9412 5.91336 21.175 5.80905 21.4282L2.7468 22.1862C2.59383 22.2239 2.45305 22.3001 2.33786 22.4076C2.22267 22.5151 2.1369 22.6503 2.08871 22.8004C2.04053 22.9504 2.03153 23.1103 2.06257 23.2648C2.09361 23.4193 2.16366 23.5633 2.26606 23.6831L4.31582 26.0787L4.14196 26.8534L1.29252 28.1993C1.15097 28.2678 1.02908 28.371 0.938194 28.4994C0.847309 28.6277 0.790395 28.777 0.772757 28.9333C0.755119 29.0896 0.777332 29.2478 0.837324 29.3932C0.897316 29.5386 0.993135 29.6665 1.11585 29.7648L3.5943 31.7089C3.58421 31.9768 3.58031 32.2449 3.58261 32.5129L1.04605 34.3843C0.919814 34.4791 0.819723 34.6044 0.755182 34.7484C0.69064 34.8925 0.663765 35.0506 0.677078 35.208C0.690392 35.3653 0.743458 35.5166 0.831294 35.6478C0.919129 35.779 1.03885 35.8857 1.17923 35.958L3.99146 37.3912C4.03225 37.6491 4.08056 37.9058 4.13632 38.1609L2.01105 40.5043C1.90345 40.6191 1.82748 40.7598 1.79055 40.9128C1.75363 41.0658 1.75702 41.2257 1.8004 41.3769C1.84377 41.5282 1.92564 41.6656 2.03801 41.7758C2.15038 41.8859 2.28939 41.965 2.44146 42.0054L5.48563 42.8665C5.57628 43.1165 5.67026 43.3634 5.77063 43.5959L4.14803 46.3114C4.06612 46.446 4.02014 46.5993 4.01451 46.7567C4.00888 46.9142 4.04379 47.0704 4.11589 47.2105C4.18798 47.3506 4.29485 47.4698 4.42623 47.5567C4.55762 47.6436 4.70912 47.6953 4.8662 47.7068L8.01182 47.9594C8.15111 48.1807 8.29096 48.404 8.44499 48.6253L7.37334 51.5873C7.3203 51.7364 7.30625 51.8965 7.33253 52.0525C7.35881 52.2085 7.42454 52.3552 7.52347 52.4786C7.6224 52.6021 7.75125 52.6982 7.89777 52.7578C8.04429 52.8174 8.2036 52.8385 8.36057 52.8191L11.4922 52.45C11.6673 52.6421 11.8536 52.8289 12.0404 53.0176L11.5716 56.1355C11.5483 56.2913 11.5652 56.4505 11.6207 56.598C11.6763 56.7455 11.7686 56.8763 11.889 56.978C12.0094 57.0797 12.1537 57.1489 12.3084 57.179C12.463 57.2091 12.6228 57.1992 12.7725 57.1501L15.7739 56.1799C15.9932 56.3277 16.1984 56.4775 16.4283 56.618L16.5767 59.7801C16.5848 59.9369 16.6326 60.0889 16.7158 60.222C16.799 60.3551 16.9146 60.4648 17.0519 60.5408C17.1892 60.6168 17.3436 60.6565 17.5005 60.6562C17.6574 60.6559 17.8116 60.6157 17.9486 60.5392L20.7089 58.9998C20.9485 59.1081 21.1861 59.2022 21.4354 59.3077L22.1936 62.3708C22.2298 62.5248 22.3053 62.6669 22.4126 62.7832C22.5199 62.8994 22.6554 62.986 22.806 63.0344C22.9566 63.0828 23.1172 63.0915 23.2721 63.0595C23.4271 63.0275 23.5711 62.9559 23.6902 62.8518L26.0881 60.8053C26.3459 60.8598 26.601 60.9194 26.86 60.9779L28.2163 63.8274C28.2835 63.9686 28.3854 64.0905 28.5126 64.1814C28.6399 64.2724 28.7881 64.3295 28.9434 64.3473C29.0988 64.3652 29.2561 64.3432 29.4006 64.2834C29.5451 64.2237 29.672 64.1281 29.7693 64.0057L31.7228 61.5261C31.989 61.5362 32.2544 61.5359 32.5158 61.5368L34.3969 64.0715C34.489 64.1999 34.6128 64.3022 34.7562 64.3686C34.8997 64.4349 35.0578 64.463 35.2153 64.4501C35.3727 64.4372 35.5242 64.3837 35.6549 64.2949C35.7855 64.2061 35.891 64.0849 35.961 63.9432L37.3929 61.1286C37.6529 61.0878 37.9071 61.0486 38.1651 60.9936L40.5083 63.1197C40.625 63.2252 40.7666 63.2991 40.9198 63.3347C41.073 63.3702 41.2327 63.3661 41.3838 63.3228C41.535 63.2794 41.6726 63.1983 41.7837 63.087C41.8948 62.9757 41.9756 62.8379 42.0187 62.6866L42.8791 59.6418C43.1291 59.5512 43.3635 59.4503 43.6056 59.3472L46.3115 60.9753C46.4464 61.056 46.5996 61.1009 46.7567 61.1058C46.9137 61.1107 47.0694 61.0755 47.2091 61.0033C47.3487 60.9312 47.4676 60.8247 47.5545 60.6938C47.6415 60.5628 47.6936 60.4119 47.7059 60.2552L47.958 57.1089C48.1792 56.9696 48.4024 56.8297 48.6247 56.6796L51.5857 57.75C51.734 57.8043 51.8938 57.8197 52.0497 57.7947C52.2057 57.7696 52.3526 57.7049 52.4764 57.6069C52.6003 57.5088 52.6969 57.3806 52.757 57.2345C52.8171 57.0884 52.8388 56.9293 52.8198 56.7724L52.4503 53.64C52.6487 53.4504 52.8379 53.2655 53.0252 53.0812L56.1413 53.5466C56.297 53.5694 56.4559 53.5522 56.603 53.4964C56.7502 53.4407 56.8807 53.3484 56.9822 53.2281C57.0837 53.1079 57.1529 52.9638 57.1832 52.8094C57.2136 52.6549 57.204 52.4953 57.1555 52.3456L56.1754 49.3461C56.3328 49.124 56.4825 48.9188 56.6166 48.7034L59.7752 48.5457C59.9319 48.5372 60.084 48.4892 60.2173 48.4062C60.3505 48.3232 60.4606 48.2078 60.5373 48.0708C60.6141 47.9338 60.6549 47.7797 60.6561 47.6226C60.6573 47.4656 60.6188 47.3108 60.5442 47.1727L58.9944 44.4124C59.1026 44.1728 59.2095 43.9356 59.3054 43.6974L62.3766 42.9264C62.5299 42.8892 62.6711 42.8132 62.7866 42.7058C62.9022 42.5983 62.9882 42.463 63.0364 42.3128C63.0847 42.1625 63.0935 42.0024 63.0622 41.8478C63.0308 41.6931 62.9603 41.5491 62.8573 41.4295L60.8115 39.0327C60.866 38.7748 60.925 38.5177 60.9717 38.262L63.8231 36.9155C63.9652 36.8476 64.0877 36.7446 64.179 36.6162C64.2703 36.4878 64.3274 36.3382 64.3449 36.1816C64.3623 36.025 64.3397 35.8665 64.2789 35.7211C64.2182 35.5757 64.1215 35.4482 63.9978 35.3505L61.533 33.4025L61.5436 32.6094L64.0656 30.7316C64.1935 30.6393 64.2956 30.5158 64.362 30.3728C64.4285 30.2297 64.4571 30.0721 64.4452 29.9148C64.4333 29.7575 64.3812 29.6059 64.294 29.4745C64.2067 29.3431 64.0872 29.2363 63.9469 29.1644L61.13 27.7219C61.0822 27.4743 61.0402 27.2104 60.9851 26.9523L63.1123 24.6083C63.2194 24.4932 63.2948 24.3525 63.3314 24.1997C63.368 24.0469 63.3645 23.8872 63.3211 23.7362C63.2778 23.5851 63.1962 23.4478 63.0842 23.3376C62.9722 23.2274 62.8336 23.1481 62.6819 23.1072L62.6844 23.1086ZM51.5399 49.4807C49.0125 49.6576 48.7469 45.8591 51.284 45.6794C51.788 45.6455 52.2848 45.8133 52.6651 46.1458C53.0455 46.4783 53.2782 46.9483 53.3122 47.4523C53.3461 47.9564 53.1784 48.4533 52.8461 48.8337C52.5137 49.2141 52.0439 49.4468 51.5399 49.4807ZM48.967 43.7986C48.7395 43.8138 48.5172 43.874 48.3131 43.9756C48.109 44.0772 47.927 44.2182 47.7777 44.3905C47.6283 44.5628 47.5146 44.763 47.443 44.9795C47.3713 45.196 47.3433 45.4245 47.3604 45.6519L47.6596 50.1846C45.1278 52.3455 42.1616 53.9376 38.9615 54.8531C35.6921 55.7934 32.2565 56.0069 28.8956 55.4787L26.7446 51.4665C26.6387 51.2646 26.4938 51.0858 26.3181 50.9404C26.1424 50.7951 25.9396 50.6863 25.7215 50.6202C25.5033 50.5541 25.2742 50.5321 25.0475 50.5555C24.8207 50.5789 24.601 50.6472 24.4009 50.7564L20.8603 52.6376C19.9475 52.1203 19.0731 51.5381 18.2438 50.8954L36.623 45.6252C36.8274 45.5666 36.9591 45.4972 36.9033 45.3025L35.0404 38.8058C34.9846 38.6111 34.8361 38.6221 34.6317 38.6807L29.2501 40.2239L28.0666 36.0965L33.8842 34.4283C34.4116 34.2771 36.7668 33.764 38.3411 36.5067C38.8337 37.3431 40.1874 40.1469 40.8007 40.9929C41.4506 41.9591 43.4638 43.6616 44.9644 43.2313L54.1199 40.606C54.2315 40.574 54.3401 40.5323 54.4443 40.4813C54.0616 41.527 53.6016 42.5427 53.0682 43.5201L48.967 43.7986ZM25.2294 56.9366C24.7822 57.1709 24.2608 57.2198 23.7777 57.073C23.2946 56.9261 22.8886 56.5952 22.6473 56.1516C22.528 55.9313 22.4537 55.6894 22.4287 55.4401C22.4037 55.1908 22.4285 54.939 22.5017 54.6994C22.5749 54.4598 22.6951 54.2371 22.8551 54.0444C23.0151 53.8517 23.2119 53.6927 23.434 53.5768C23.8794 53.3387 24.4011 53.2873 24.8844 53.434C25.3677 53.5807 25.773 53.9135 26.0111 54.359C26.2492 54.8046 26.3006 55.3264 26.154 55.8098C26.0074 56.2932 25.6748 56.6985 25.2294 56.9366ZM10.1484 30.6555C10.3181 30.8463 10.448 31.0691 10.5303 31.3108C10.6126 31.5526 10.6457 31.8084 10.6277 32.0631C10.6096 32.3178 10.5408 32.5663 10.4253 32.794C10.3097 33.0217 10.1498 33.224 9.95488 33.3889C9.7584 33.5515 9.53151 33.6733 9.28744 33.7471C9.04338 33.821 8.78703 33.8455 8.53338 33.8192C8.27973 33.7929 8.03386 33.7163 7.81013 33.5938C7.5864 33.4714 7.38929 33.3056 7.23032 33.1062C5.70947 31.174 8.51254 28.8217 10.149 30.6574L10.1484 30.6555ZM9.46591 36.3482L12.8973 33.4765C13.6329 32.861 13.7246 31.7707 13.1098 31.0368L11.7717 29.4336L14.9656 28.5178L19.0856 42.8857L12.6569 44.7291C11.0632 42.1672 9.97907 39.3217 9.46396 36.3488L9.46591 36.3482ZM26.3298 30.0103L25.1145 25.772L32.6974 23.5976C33.0925 23.4843 35.5943 23.2621 36.1034 25.0376C36.5277 26.5172 34.8553 27.5678 33.3644 27.9953L26.3298 30.0103ZM54.9965 25.9157C55.1567 26.4744 55.2944 27.0354 55.4124 27.5937L53.1001 28.2567C52.8666 28.3237 52.8192 28.5037 52.8862 28.7373L53.1882 29.7906C53.9033 32.2845 52.658 33.2231 51.4614 33.7221C50.3238 34.1916 48.8475 33.9428 48.4819 33.2702C46.6745 29.5746 45.2819 29.0742 43.0451 28.1565C44.8917 26.0678 46.6383 23.2852 45.8243 20.4466C44.9462 17.3842 42.2934 16.059 40.5966 15.5258C38.2067 14.7721 35.9131 15.1474 35.3136 15.3193L11.4614 22.1588C13.6983 17.5256 17.4003 13.7596 21.9939 11.4441L25.6613 13.5971C25.8577 13.7115 26.0746 13.786 26.2998 13.8165C26.525 13.847 26.7539 13.8327 26.9735 13.7746C27.1932 13.7166 27.3992 13.6157 27.5799 13.4779C27.7606 13.3402 27.9123 13.1681 28.0264 12.9716L30.3061 9.05848C33.6863 8.73826 37.0958 9.1581 40.2976 10.2888C43.4995 11.4195 46.4169 13.234 48.8471 15.6062L48.0842 21.0923C48.0243 21.548 48.1462 22.0089 48.4235 22.3754C48.7009 22.7419 49.1114 22.9844 49.5662 23.0503L54.2424 23.7047C54.5252 24.4264 54.7685 25.1572 54.9868 25.9185L54.9965 25.9157ZM24.0962 8.13171C25.3753 5.94453 28.6603 7.86591 27.3779 10.0562C26.0603 12.0795 22.9851 10.2728 24.0962 8.13171ZM50.4086 19.208C50.477 18.7096 50.7404 18.2588 51.141 17.9547C51.5416 17.6506 52.0465 17.518 52.5449 17.5862C54.2347 17.8159 54.7951 19.9686 53.4442 20.9944C52.0805 22.0196 50.1686 20.8907 50.4105 19.2074L50.4086 19.208Z" fill="#E76F00"/>
</svg>
