<svg width="45" height="62" viewBox="0 0 45 62" fill="none" xmlns="http://www.w3.org/2000/svg">
<path opacity="0.45" d="M27.6808 1.14371L20.4679 18.6801L2.01409 20.9459L9.22693 3.40956L27.6808 1.14371Z" fill="black"/>
<path opacity="0.6" d="M20.4638 18.6807L38.9176 16.4148L27.6766 1.14431L9.22278 3.41016L20.4638 18.6807Z" fill="black"/>
<path opacity="0.8" d="M13.2551 36.2164L20.4679 18.6801L9.22693 3.40956L2.01409 20.9459L13.2551 36.2164Z" fill="black"/>
<path opacity="0.45" d="M16.3644 60.8106L23.5773 43.2743L42.0311 41.0085L34.8183 58.5448L16.3644 60.8106Z" fill="black"/>
<path opacity="0.6" d="M23.5813 43.2739L5.12744 45.5398L16.3685 60.8103L34.8223 58.5444L23.5813 43.2739Z" fill="black"/>
<path opacity="0.8" d="M30.7902 25.7382L23.5773 43.2745L34.8183 58.545L42.0312 41.0087L30.7902 25.7382Z" fill="black"/>
</svg>
